<svg width="372" height="117" viewBox="0 0 372 117" fill="none" xmlns="http://www.w3.org/2000/svg">
<path fill-rule="evenodd" clip-rule="evenodd" d="M106.964 6.98837V114.122H109.826V6.98837H106.964Z" fill="white"/>
<path d="M322.572 34.7838C322.82 35.9158 323.297 36.8676 323.926 37.4716C324.735 38.1863 325.643 38.5246 326.559 38.4519C327.423 38.4767 328.283 38.2409 329.096 37.7562C329.922 37.2199 330.71 36.5304 331.442 35.7008C332.103 35.0117 332.705 34.1825 333.236 33.2343C333.869 31.848 334.347 30.2843 334.647 28.6176C335.047 26.6724 335.253 24.6326 335.258 22.5778C335.266 21.5845 335.189 20.5942 335.029 19.637C334.885 18.7874 334.631 17.9999 334.285 17.3286C333.869 16.6101 333.351 16.0772 332.778 15.7792C332.074 15.366 331.331 15.1626 330.584 15.1784C329.653 15.1729 328.731 15.4851 327.875 16.0954C327.035 16.6913 326.246 17.4674 325.529 18.4038C324.988 19.0663 324.489 19.8186 324.041 20.6489C323.462 21.9968 323.035 23.5075 322.782 25.1076C322.41 27.0405 322.217 29.0554 322.209 31.0841C322.203 32.3553 322.333 33.6183 322.591 34.8154L322.572 34.7838ZM326.12 23.8111C326.341 21.905 326.824 20.1089 327.532 18.5619C327.773 18.1209 328.067 17.769 328.396 17.5293C328.725 17.2896 329.08 17.1673 329.439 17.1705C329.773 17.15 330.106 17.2528 330.412 17.4716C330.719 17.6903 330.993 18.0196 331.214 18.4354C331.729 19.6149 331.975 21.06 331.9 22.5146C331.887 24.8767 331.688 27.2258 331.309 29.503C331.106 30.8651 330.805 32.1816 330.412 33.4241C330.159 34.2392 329.793 34.9434 329.344 35.4795C328.934 35.912 328.456 36.1322 327.97 36.1119C327.617 36.161 327.261 36.0755 326.93 35.8617C326.6 35.648 326.303 35.3117 326.063 34.8786C325.571 33.682 325.342 32.2422 325.414 30.7995C325.439 28.4136 325.65 26.0433 326.044 23.7478L326.12 23.8111ZM338.959 18.3722H340.866L338.844 35.6692C338.546 38.8751 338.119 42.0443 337.566 45.1557C337.46 45.7532 337.255 46.2898 336.975 46.7051C336.763 46.9854 336.502 47.1411 336.231 47.1478C335.95 47.1503 335.678 46.9814 335.468 46.6735C335.191 46.2286 334.976 45.689 334.838 45.0924H334.399C334.304 45.9146 334.19 46.7051 334.056 47.4008C333.922 48.0965 333.732 49.0135 333.484 50.1835C333.772 50.4049 334.083 50.544 334.399 50.5946C334.882 50.5756 335.353 50.3574 335.773 49.9622C336.796 49.0051 337.701 47.7396 338.444 46.2308C339.345 44.4942 340.061 42.5159 340.561 40.3808C341.324 36.8392 341.961 33.2312 342.469 29.5662L343.938 18.3722H347.505C347.61 17.552 347.757 16.748 347.944 15.9689L347.81 15.5895C347.362 15.7051 346.91 15.779 346.456 15.8108C345.451 15.9152 344.815 15.9152 344.548 15.8108H344.319C344.531 13.7343 344.805 11.6763 345.14 9.64459C345.229 9.05427 345.357 8.48175 345.521 7.93702C345.643 7.57194 345.821 7.26654 346.036 7.05162C346.237 6.8461 346.468 6.73665 346.704 6.7354C347.069 6.77103 347.42 6.97956 347.715 7.33621C348.173 7.89275 348.562 8.58843 348.86 9.39162H349.279C349.455 7.39221 349.716 5.41611 350.062 3.47838C349.697 3.23681 349.309 3.10819 348.917 3.09892C348.469 3.07124 348.021 3.18941 347.601 3.44675C346.932 4.06746 346.294 4.77594 345.693 5.5654C344.745 6.69328 343.84 7.91838 342.984 9.23351C342.524 9.91831 342.131 10.7186 341.82 11.6051C341.592 12.4765 341.425 13.3892 341.324 14.3246C341.324 14.9254 341.191 15.3049 341.134 15.5578C340.645 15.9143 340.141 16.2103 339.626 16.4432C339.016 16.7373 338.558 16.9808 338.253 17.1705L338.119 18.3405H338.959V18.3722ZM145.118 70.5162H142.581C142.604 72.3232 142.495 74.1283 142.257 75.8919C142.228 76.1389 142.163 76.3699 142.066 76.5635C141.969 76.7571 141.845 76.9068 141.703 76.9987C140.153 77.5172 138.57 77.7085 136.991 77.5678C136.127 77.5678 134.468 77.4508 132.012 77.22V70.6427C132.012 62.3578 132.121 56.6343 132.337 53.4722L135.37 53.2508H138.098C139.58 53.2208 141.06 53.4006 142.524 53.7884C143.356 53.9362 144.168 54.3101 144.927 54.8951C145.048 54.994 145.143 55.1627 145.194 55.3695C145.315 56.1979 145.374 57.0454 145.366 57.8992C145.481 60.47 145.538 62.1365 145.538 62.8954H147.884C147.884 60.7862 147.974 58.3324 148.151 55.5276C148.329 52.7227 148.514 50.4049 148.705 48.5708L148.438 47.9068C146.6 47.5791 144.753 47.4208 142.905 47.4324L129.017 47.8751L118.83 47.4324V51.5432C119.975 51.616 121.114 51.7962 122.245 52.0808C122.537 52.1567 122.815 52.3275 123.065 52.5868C123.2 52.8003 123.293 53.0756 123.332 53.3773C123.555 55.0917 123.664 56.8413 123.657 58.5949C123.834 67.0284 123.924 71.4965 123.924 72.0024V91.7027C123.924 93.3881 123.872 96.1708 123.771 100.051C123.67 103.931 123.594 106.239 123.542 106.976C123.521 107.847 123.385 108.701 123.142 109.474C123.033 109.724 122.879 109.912 122.703 110.012C121.428 110.447 120.131 110.669 118.83 110.676V114.628C122.378 114.398 124.973 114.281 126.614 114.281L137.907 114.534V110.676C136.384 110.585 134.867 110.321 133.367 109.885C133.077 109.752 132.822 109.463 132.642 109.063C132.327 107.352 132.172 105.571 132.184 103.782C132.07 100.746 132.012 95.4752 132.012 87.9714V82.5641H134.321C136.572 82.4818 138.823 82.6905 141.055 83.1965C141.255 83.2224 141.451 83.3173 141.628 83.4752C141.805 83.6331 141.961 83.8505 142.085 84.1135C142.482 86.4571 142.65 88.8915 142.581 91.3232H145.118V70.5162ZM161.181 114.091C162.453 114.091 164.666 114.154 167.82 114.281L174.611 114.534C177.078 114.534 178.898 114.448 180.067 114.281C180.646 114.217 181.221 114.069 181.784 113.838C181.784 113.228 181.874 111.412 182.051 108.399L182.776 98.7227V97.1416H180.43C180.061 100.218 179.686 102.982 179.304 105.426C179.221 106.071 179.051 106.676 178.808 107.197C178.369 107.567 177.888 107.782 177.396 107.83C174.869 108.434 172.318 108.72 169.766 108.684C168.798 108.684 166.986 108.567 164.329 108.336V100.177V86.6116V72.793C164.329 67.4394 164.372 62.9998 164.462 59.4803C164.421 57.4951 164.472 55.5076 164.615 53.5354C164.69 53.1354 164.854 52.7969 165.073 52.5868C166.367 51.965 167.712 51.677 169.06 51.733V47.4324C165.918 47.6633 162.598 47.7803 159.102 47.7803C155.96 47.7803 153.169 47.6633 150.727 47.4324V51.6381C152.224 51.5275 153.722 51.8485 155.153 52.5868C155.361 52.7654 155.518 53.0719 155.591 53.4405C155.878 56.8557 156 60.3024 155.954 63.7492V82.4376C155.954 89.3089 155.916 95.1906 155.839 100.082C155.763 104.974 155.673 107.82 155.572 108.62C155.557 108.816 155.511 109.001 155.439 109.158C155.214 109.548 154.949 109.87 154.657 110.106C153.982 110.801 153.281 111.424 152.558 111.972V114.439C156.374 114.145 159.241 113.996 161.162 113.996L161.181 114.091ZM186.095 100.81C187.792 105.769 190.343 109.777 193.421 112.32C196.902 115.067 200.726 116.411 204.581 116.241C208.233 116.363 211.863 115.289 215.264 113.079C217.544 111.473 219.611 109.142 221.35 106.217C223.109 103.306 224.492 99.8305 225.413 96.0032C226.693 90.6943 227.341 85.0244 227.321 79.307C227.321 76.0255 227.084 72.7557 226.615 69.5676C226.211 66.7342 225.569 64.0091 224.707 61.4724C222.563 55.6106 219.27 51.1458 215.378 48.8238C212.303 47.1393 209.079 46.3164 205.84 46.3889C202.529 46.3336 199.234 47.1884 196.092 48.9186C193.615 50.3891 191.351 52.7055 189.449 55.7178C187.546 58.7301 186.046 62.3713 185.046 66.4054C183.921 71.2769 183.377 76.4637 183.444 81.6786C183.301 88.2803 184.216 94.8268 186.095 100.652V100.81ZM193.726 64.7927C194.472 60.8518 195.989 57.4356 198.038 55.0849C200.183 52.8619 202.682 51.7601 205.21 51.9227C207.261 51.7703 209.301 52.4772 211.143 53.9781C212.672 55.4644 213.977 57.5082 214.959 59.9546C216.129 62.846 216.981 66.0576 217.477 69.4411C218.086 73.4515 218.381 77.5751 218.354 81.7103C218.444 87.3737 217.894 93.015 216.733 98.3432C215.93 102.262 214.375 105.638 212.307 107.956C210.341 109.896 208.089 110.892 205.802 110.834C203.395 110.887 201.031 109.789 198.991 107.672C196.811 105.112 195.159 101.502 194.26 97.3314C192.898 91.4326 192.25 85.1467 192.353 78.8327C192.316 74.0096 192.768 69.2105 193.688 64.6346L193.726 64.7927ZM231.384 52.4919C231.571 52.6886 231.718 52.9755 231.804 53.3141C232.088 55.6761 232.203 58.0854 232.147 60.4922L232.3 70.6111V88.3824L232.071 102.359C232.048 104.254 231.952 106.145 231.785 108.019C231.762 108.487 231.678 108.941 231.537 109.348C231.408 109.593 231.233 109.76 231.041 109.822C229.781 110.187 228.504 110.367 227.225 110.359V114.565C229.768 114.334 232.548 114.217 235.562 114.217C238.933 114.217 242.258 114.334 245.539 114.565V110.328C244.418 110.341 243.296 110.246 242.182 110.043C241.884 109.969 241.599 109.797 241.342 109.537C241.183 109.36 241.052 109.121 240.961 108.842C240.744 107.717 240.634 106.544 240.636 105.363C240.636 104.478 240.579 100.746 240.465 94.1692V78.9592C240.465 75.9235 240.522 69.8933 240.636 60.8716C240.636 56.8462 240.694 54.2532 240.808 53.0927C241.716 52.8378 242.635 52.7109 243.555 52.7132C245.012 52.5979 246.472 52.843 247.886 53.4405C249.16 54.2394 250.258 55.6621 251.033 57.5197C251.922 59.6763 252.369 62.2472 252.311 64.8559C252.332 67.6133 251.91 70.3303 251.09 72.7297C250.429 74.8276 249.388 76.5302 248.114 77.5995C246.447 78.6324 244.661 79.0323 242.887 78.7695L242.563 80.3505C243.254 81.2486 243.858 82.3142 244.356 83.5127C245.629 86.2954 247.128 90.1121 248.858 94.9597L255.039 111.846C255.339 112.699 255.57 113.613 255.726 114.565C257.252 114.439 258.784 114.375 260.324 114.375C261.596 114.375 263.738 114.439 266.753 114.565V110.328C266.108 110.38 265.463 110.252 264.845 109.948C264.484 109.666 264.16 109.268 263.891 108.778C263.561 108.209 262.676 106.344 261.239 103.181L259.332 98.4381L254.849 87.3705L254.524 86.4535C254.41 86.1373 254.066 85.2519 253.437 83.7341C252.807 82.2162 252.273 80.7932 251.796 79.3703C254.409 77.9666 256.725 75.3556 258.473 71.8443C259.889 68.8366 260.654 65.1288 260.648 61.3143C260.703 58.3348 260.145 55.4128 259.065 53.0295C258.119 50.8882 256.78 49.3127 255.249 48.5392C253.023 47.6933 250.74 47.3319 248.458 47.4641C246.894 47.4641 244.923 47.5589 242.544 47.7486C241.094 47.8973 239.364 47.97 237.355 47.97H231.861L227.244 47.7486V51.5432C228.675 51.5502 230.099 51.8692 231.479 52.4919H231.384ZM277.455 47.8751C274.313 47.8751 271.528 47.7581 269.099 47.5273V51.733C270.324 51.7481 271.547 51.8853 272.762 52.1441C273.016 52.2174 273.253 52.4032 273.449 52.6816C273.592 52.9517 273.69 53.2785 273.735 53.6303C273.945 56.1568 274.059 58.7024 274.078 61.2511V93.5368C274.078 96.8033 274.002 100.345 273.849 104.162C273.754 106.786 273.678 108.272 273.62 108.652C273.577 108.942 273.485 109.206 273.353 109.411C273.113 109.705 272.83 109.891 272.533 109.948C272.228 109.948 271.07 110.065 269.061 110.296V114.502C271.825 114.256 274.592 114.14 277.359 114.154C280.932 114.154 284.284 114.271 287.413 114.502V110.328C286.259 110.343 285.106 110.237 283.96 110.012C283.646 109.929 283.347 109.735 283.082 109.442C282.883 109.177 282.743 108.81 282.682 108.399C282.432 106.318 282.336 104.194 282.396 102.075V73.9313C282.396 73.3211 282.434 69.1027 282.51 61.2827V56.5711C282.515 55.4999 282.611 54.4351 282.796 53.4089C282.853 53.0962 282.966 52.8201 283.121 52.6184C283.356 52.3497 283.622 52.1665 283.903 52.0808C285.061 51.8456 286.227 51.7294 287.394 51.733V47.4324C284.252 47.6633 280.921 47.7803 277.398 47.7803L277.455 47.8751ZM299.794 114.281L308.359 114.628C311.724 114.749 315.08 114.035 318.318 112.51C321.11 111.037 323.702 108.674 325.948 105.553C328.321 102.291 330.219 98.1839 331.5 93.5368C332.889 88.4103 333.58 82.8392 333.522 77.22C333.553 72.715 333.094 68.2377 332.167 64.0022C331.61 61.5575 330.804 59.2899 329.783 57.2984C328.698 55.1705 327.409 53.3542 325.967 51.9227C324.302 50.3696 322.489 49.3001 320.607 48.7605C317.905 47.9815 315.165 47.6321 312.423 47.717C310.935 47.717 308.964 47.7708 306.509 47.8751C303.1 48.0649 300.78 48.1597 299.546 48.1597L289.149 47.4324V51.2903C291.234 51.733 292.444 52.0176 292.774 52.1441C293.042 52.2186 293.293 52.4157 293.498 52.7132C293.605 52.9024 293.683 53.1297 293.727 53.3773C294.004 56.2327 294.132 59.1198 294.109 62.01C294.21 70.1462 294.262 76.3251 294.262 80.5403V88.5405C294.262 98.1535 294.153 105.101 293.937 109.379C293.327 110.148 292.69 110.853 292.03 111.498L291.228 112.257V114.565L299.966 114.217L299.794 114.281ZM302.293 89.9003V78.8327C302.293 66.3105 302.394 57.7948 302.598 53.2824C304.221 52.8795 305.86 52.6681 307.501 52.65C310.481 52.4374 313.463 53.0138 316.334 54.3576C318.221 55.4414 319.891 57.3672 321.16 59.923C322.45 62.5353 323.387 65.5763 323.907 68.8403C324.469 72.2833 324.751 75.8352 324.746 79.4019C324.763 83.1676 324.481 86.9205 323.907 90.5643C323.428 93.7313 322.635 96.7446 321.561 99.4816C320.721 101.671 319.648 103.589 318.394 105.142C317.231 106.465 315.941 107.449 314.578 108.051C312.354 108.99 310.064 109.437 307.768 109.379C306.048 109.362 304.331 109.108 302.636 108.62C302.432 105.585 302.331 99.3235 302.331 89.837L302.293 89.9003ZM335.048 114.281L341.706 114.628V110.676C340.313 110.778 338.92 110.489 337.585 109.822C337.43 109.644 337.305 109.401 337.225 109.118C337.145 108.835 337.111 108.521 337.127 108.209C337.41 105.395 337.89 102.647 338.558 100.019L339.817 94.2957H354.716L357.292 104.668C357.645 105.904 357.87 107.229 357.959 108.589C357.973 108.861 357.939 109.134 357.861 109.376C357.783 109.617 357.665 109.816 357.521 109.948C356.195 110.462 354.837 110.706 353.476 110.676V114.628L363.606 114.281L371.638 114.628V110.676L370.359 110.454C369.794 110.426 369.232 110.31 368.681 110.106C368.462 109.984 368.261 109.791 368.089 109.537C367.865 109.18 367.678 108.763 367.536 108.304L366.372 103.909L364.579 97.363L351.759 47.2427H347.639L345.102 58.1205L337.566 88.9516C336.615 92.868 335.654 96.7785 334.686 100.683C334.057 103.123 333.421 105.558 332.778 107.988C332.61 108.517 332.391 108.998 332.129 109.411C331.906 109.719 331.646 109.945 331.366 110.075C330.445 110.344 329.516 110.511 328.581 110.581V114.534L335.201 114.186L335.048 114.281ZM347.181 63.8757L353.362 88.5405H341.248L347.2 63.7808L347.181 63.8757ZM120.337 8.88567C120.502 9.01924 120.641 9.22754 120.738 9.48648C120.833 9.90073 120.885 10.3403 120.89 10.783V28.6808C121.048 30.5209 121.62 32.1936 122.493 33.3608C123.059 34.0992 123.707 34.647 124.401 34.9735C125.514 35.5323 126.671 35.8095 127.834 35.7957C128.768 35.8157 129.699 35.6242 130.601 35.2265C131.351 34.8911 132.057 34.3223 132.68 33.5505C133.249 32.8744 133.729 32.0138 134.092 31.0208C134.42 30.0419 134.633 28.969 134.721 27.8586C134.823 26.6219 134.874 25.3753 134.874 24.1273V19.2892V13.5973C134.886 12.2206 134.956 10.847 135.084 9.48648C135.119 9.25086 135.2 9.04032 135.313 8.88567C135.764 8.61217 136.245 8.50428 136.724 8.56946V6.95675L134.092 7.08324H131.135V8.60108C131.724 8.56406 132.312 8.70331 132.871 9.01216C132.998 9.10723 133.1 9.27589 133.157 9.48648C133.296 10.5237 133.353 11.5862 133.329 12.6486V23.0838C133.409 25.0496 133.266 27.023 132.909 28.9022C132.601 29.9542 132.1 30.8177 131.478 31.3686C130.647 32.0672 129.719 32.3942 128.788 32.3173C127.992 32.3493 127.2 32.1126 126.461 31.6216C125.893 31.2353 125.403 30.588 125.049 29.7559C124.7 28.7991 124.503 27.7111 124.477 26.5938V15.1784C124.41 13.344 124.436 11.5036 124.553 9.67621C124.562 9.5377 124.589 9.40401 124.632 9.28405C124.675 9.16409 124.732 9.06062 124.801 8.98054C125.33 8.64432 125.897 8.51447 126.461 8.60108V6.95675H124.324L122.646 7.08324L118.83 6.95675V8.60108L120.414 8.88567H120.337ZM141.875 35.0368H147.694V33.3292H147.446C147.063 33.3107 146.68 33.2579 146.301 33.1711C146.158 33.1551 146.02 33.0789 145.9 32.9497C145.822 32.8539 145.762 32.722 145.729 32.5703C145.626 31.6312 145.575 30.6787 145.576 29.7243V13.2811C150.359 22.9573 154.052 30.2081 156.66 35.0368L158.739 35.5427L158.892 35.3846C158.777 33.4873 158.72 28.0895 158.72 19.1943V13.9135C158.681 12.3689 158.738 10.8217 158.892 9.29675C158.909 9.16624 158.957 9.05255 159.025 8.98054C159.598 8.6833 160.2 8.56313 160.799 8.6327V6.95675H155.076V8.6327C155.723 8.53784 156.374 8.68013 156.984 9.04378C157.126 9.31494 157.201 9.66511 157.194 10.0241C157.295 11.2889 157.346 15.5041 157.346 22.6727V27.3211C156.227 25.4016 154.815 22.7581 153.111 19.3841C151.02 15.3192 148.984 11.1757 147.007 6.95675H141.875V8.6327C142.392 8.66432 142.909 8.74654 143.42 8.88567C143.563 8.93045 143.695 9.03992 143.802 9.20189C143.891 9.39646 143.95 9.62455 143.974 9.86594C144.004 10.4984 144.004 11.1308 143.974 11.7632V28.2697C143.911 30.2303 143.853 31.4635 143.802 31.9695C143.787 32.2384 143.734 32.498 143.649 32.7284C143.588 32.8444 143.509 32.9316 143.42 32.9814C142.877 33.111 142.329 33.1849 141.78 33.2027V34.9103L141.875 35.0368ZM169.785 7.08324H166.294V8.72757C166.803 8.72757 167.314 8.78132 167.82 8.88567C167.925 8.9151 168.024 8.99161 168.106 9.10703C168.166 9.22448 168.205 9.3665 168.22 9.51811C168.329 10.5521 168.4 11.5988 168.43 12.6486V26.2459C168.43 27.6152 168.392 29.1014 168.316 30.7046V32.6019C168.297 32.7238 168.257 32.8339 168.201 32.9181C168.1 33.0397 167.982 33.1159 167.858 33.1395H166.408V34.9103H174.096V33.2659C173.613 33.3167 173.129 33.3167 172.646 33.2659C172.495 33.1982 172.357 33.0676 172.246 32.8865C172.161 32.7741 172.1 32.6185 172.074 32.4438C171.969 31.5591 171.93 30.6563 171.959 29.7559V18.0243V12.7119V10.7513C171.957 10.3246 171.989 9.89914 172.055 9.48648C172.087 9.32404 172.155 9.18815 172.246 9.10703C172.343 8.99621 172.454 8.92078 172.57 8.88567C173.059 8.83563 173.55 8.83563 174.039 8.88567V6.95675H169.842L169.785 7.08324ZM189.129 35.1632C189.625 32.8865 190.565 28.9875 191.952 23.4632L193.593 17.1389L194.451 13.8186C194.783 12.2054 195.245 10.6738 195.825 9.26513C196.264 8.99594 196.729 8.8568 197.198 8.85405V6.95675H191.513V8.72757H193.287C193.358 8.78378 193.417 8.87139 193.459 8.98054C193.486 9.14628 193.486 9.32074 193.459 9.48648C193.468 9.64424 193.468 9.80305 193.459 9.96081C193.383 10.5079 193.16 11.564 192.791 13.123C192.512 14.3919 192.226 15.6568 191.933 16.9176L189.243 27.9535L186.191 15.8108V15.4313L185.599 13.5024C185.246 12.2811 184.978 10.9975 184.798 9.67621C184.788 9.49331 184.823 9.31144 184.894 9.17027C184.995 9.01774 185.121 8.91864 185.256 8.88567C185.741 8.74264 186.233 8.67909 186.725 8.69594V6.95675H178.846V8.72757C179.357 8.67966 179.869 8.79782 180.353 9.0754C180.664 9.57186 180.905 10.179 181.059 10.8462C181.364 11.8581 182.19 15.0203 183.539 20.3327L185.256 27.1313L187.164 35.1316H189.071L189.129 35.1632ZM206.584 34.7838H212.46C213.19 34.847 213.923 34.847 214.654 34.7838L214.806 34.5308C214.825 32.3426 214.915 30.1577 215.073 27.9851H214.215C214.127 29.2172 213.974 30.4341 213.757 31.6216C213.728 31.7604 213.675 31.8817 213.604 31.9695C213.171 32.2382 212.712 32.3774 212.25 32.3805H207.538V21.6608C208.173 21.603 208.81 21.603 209.446 21.6608C210.166 21.6445 210.887 21.7185 211.601 21.8822C211.811 21.9138 211.998 22.1035 212.116 22.3881C212.298 23.3146 212.362 24.2949 212.307 25.2657H213.28V16.4749H212.307C212.313 17.3266 212.255 18.1762 212.135 19.0046C212.108 19.1698 212.047 19.3147 211.964 19.4157C211.711 19.4889 211.453 19.4889 211.201 19.4157H207.576V15.2416C207.567 13.3089 207.624 11.3768 207.748 9.45486H209.942C210.726 9.45593 211.509 9.52983 212.288 9.67621C212.621 9.68698 212.95 9.79399 213.261 9.99243C213.339 10.0967 213.392 10.2417 213.414 10.4035C213.497 11.368 213.536 12.3388 213.528 13.3127H214.463L214.577 10.4035L214.806 7.49432V7.24135L214.215 6.95675H201.891V8.66432C202.482 8.65484 203.074 8.77184 203.646 9.01216C203.731 9.07554 203.799 9.18798 203.837 9.32838C203.97 10.2391 204.028 11.1751 204.009 12.1111V25.0443C204.009 26.0973 203.976 27.7733 203.913 30.0722C203.913 31.337 203.913 32.2541 203.799 32.7916C203.432 33.2565 203.036 33.6454 202.616 33.9616V35.0368L206.584 34.7838ZM222.513 8.9173C222.591 9.00029 222.651 9.12205 222.685 9.26513C222.815 10.3055 222.866 11.368 222.838 12.4273V24.0324L222.742 29.8824C222.735 30.6763 222.697 31.4685 222.628 32.2541C222.623 32.4534 222.59 32.6482 222.532 32.8232C222.476 32.9221 222.403 32.9886 222.322 33.013C221.787 33.1647 221.244 33.2388 220.701 33.2343V35.0051H228.37V33.2659C227.9 33.3114 227.428 33.3114 226.958 33.2659C226.836 33.2307 226.719 33.1554 226.615 33.0446C226.551 32.9708 226.499 32.8734 226.462 32.76C226.373 32.2891 226.328 31.7987 226.329 31.3054V26.5938V20.2695V12.6803V9.51811C226.707 9.41237 227.09 9.35948 227.473 9.36C228.115 9.29872 228.759 9.40544 229.381 9.67621C229.915 10.0114 230.373 10.6059 230.697 11.3838C231.079 12.3135 231.268 13.4234 231.231 14.5459C231.225 15.6555 231.048 16.744 230.716 17.7081C230.444 18.5927 230.01 19.3121 229.476 19.7635C228.777 20.2031 228.027 20.376 227.282 20.2695L227.149 20.9335C227.435 21.3098 227.687 21.7557 227.893 22.2616C228.414 23.4221 229.051 25.0222 229.801 27.0681L232.395 34.1514C232.519 34.5087 232.614 34.8913 232.681 35.2897H237.298V33.2659C237.04 33.282 236.782 33.2286 236.535 33.1078C236.382 32.9864 236.245 32.8142 236.134 32.6019C235.995 32.3711 235.625 31.59 235.028 30.2619L234.207 28.2697L232.3 23.6213L232.166 23.2419L231.785 22.1351C231.537 21.5027 231.289 20.9019 231.098 20.3011C232.189 19.7082 233.155 18.6112 233.883 17.1389C234.48 15.8741 234.803 14.3151 234.799 12.7119C234.821 11.4603 234.586 10.2333 234.131 9.23351C233.733 8.34013 233.171 7.68535 232.529 7.36784C231.597 7.01564 230.641 6.86681 229.686 6.92513H220.815V8.60108C221.414 8.6074 222.012 8.74654 222.59 9.01216L222.513 8.9173ZM253.78 10.9095C253.834 10.0487 253.917 9.1936 254.028 8.34811L253.933 7.87378C253.266 7.35092 252.561 6.97868 251.834 6.76703C251.017 6.51276 250.186 6.38572 249.354 6.38757C248.546 6.38329 247.739 6.53182 246.951 6.83027C246.202 7.10896 245.491 7.61269 244.852 8.31648C244.203 9.06081 243.683 10.075 243.345 11.2573C242.961 12.5448 242.765 13.9637 242.773 15.3997C242.77 16.4254 242.88 17.4432 243.097 18.4038C243.302 19.3043 243.628 20.1155 244.051 20.7754C244.532 21.4901 245.108 22.0086 245.73 22.2932C246.188 22.5241 247.147 22.8941 248.61 23.4C249.348 23.6367 250.065 24.0189 250.747 24.5384C251.129 24.8609 251.441 25.3669 251.644 25.993C251.846 26.6697 251.943 27.4191 251.93 28.1749C251.94 29.1134 251.802 30.0401 251.529 30.8627C251.225 31.7066 250.763 32.362 250.213 32.7284C249.563 33.1918 248.86 33.4182 248.153 33.3924C247.304 33.4069 246.467 33.0814 245.711 32.4438C245.072 31.9708 244.525 31.216 244.127 30.2619C244.031 29.0671 243.986 27.8624 243.994 26.657H243.021C243.061 28.9929 242.933 31.3284 242.639 33.6138C243.455 34.2921 244.312 34.8222 245.196 35.1949C246.065 35.5237 246.955 35.6829 247.847 35.6692C249.037 35.7226 250.222 35.4007 251.338 34.7205C251.987 34.2842 252.584 33.677 253.113 32.9181C253.659 32.1667 254.118 31.2557 254.467 30.2303C254.912 28.8389 255.135 27.2831 255.116 25.7084C255.123 24.819 255.046 23.9332 254.887 23.0838C254.76 22.3782 254.56 21.7147 254.295 21.1232C254.033 20.5728 253.709 20.1112 253.342 19.7635C252.844 19.3079 252.311 18.9674 251.758 18.7516L250.137 18.2457L248.229 17.6449C247.742 17.4587 247.273 17.1607 246.836 16.7595C246.525 16.4503 246.274 16.0006 246.111 15.463C245.925 14.7893 245.833 14.0538 245.844 13.3127C245.85 12.7103 245.932 12.1166 246.087 11.5713C246.241 11.026 246.464 10.5417 246.741 10.1505C247.454 9.16028 248.369 8.66215 249.297 8.75919C250.012 8.74566 250.721 8.98273 251.377 9.45486C251.884 9.77108 252.33 10.3086 252.674 11.0043C252.75 12.0542 252.788 13.1103 252.788 14.1665H253.799C253.799 12.8068 253.799 11.7 253.914 11.0043L253.78 10.9095ZM264.54 7.02H261.049V8.72757C261.559 8.72973 262.068 8.78253 262.575 8.88567C262.68 8.9151 262.779 8.99161 262.861 9.10703C262.921 9.22448 262.96 9.3665 262.975 9.51811C263.066 10.5658 263.117 11.622 263.128 12.6803V26.2459C263.128 27.6152 263.096 29.1014 263.033 30.7046V32.6019C263.014 32.7238 262.974 32.8339 262.918 32.9181C262.817 33.0397 262.699 33.1159 262.575 33.1395H261.125V34.9103H268.813V33.2659C268.33 33.3167 267.846 33.3167 267.363 33.2659C267.233 33.2261 267.109 33.1398 267.001 33.013C266.915 32.9022 266.854 32.746 266.829 32.5703C266.724 31.6856 266.685 30.7828 266.714 29.8824V18.0243V12.7119V10.7513C266.731 10.3203 266.782 9.89482 266.867 9.48648C266.893 9.36231 266.939 9.25268 267.001 9.17027C267.098 9.06028 267.209 8.98492 267.325 8.94892C267.808 8.90001 268.292 8.90001 268.775 8.94892V6.95675H264.578L264.54 7.02ZM281.404 34.7838C282.485 34.7838 283.807 34.8375 285.372 34.9419V33.3924C284.786 33.4246 284.2 33.3073 283.636 33.0446C283.547 32.9667 283.469 32.859 283.406 32.7283C283.344 32.5977 283.299 32.4469 283.273 32.2857C283.146 30.5551 283.101 28.8104 283.14 27.0681V15.0519V9.54973H284.876C285.805 9.54973 286.598 9.60348 287.26 9.70784C287.386 9.65813 287.516 9.65813 287.642 9.70784C287.733 9.96833 287.785 10.261 287.794 10.5616C287.884 11.5451 287.936 12.538 287.947 13.5341H288.939V9.13865C288.961 8.41851 289.005 7.70077 289.073 6.98838L288.958 6.79865H273.658L273.544 6.98838C273.544 7.66192 273.582 8.29435 273.658 8.88567C273.735 9.477 273.735 11.0265 273.658 13.5341H274.65C274.664 12.4747 274.727 11.4154 274.841 10.3719C274.851 10.1207 274.904 9.87945 274.994 9.67621C275.137 9.56709 275.294 9.51304 275.452 9.51811H279.496V27.0365C279.535 28.7683 279.49 30.5024 279.362 32.2224C279.338 32.3886 279.294 32.5447 279.231 32.6808C279.169 32.8169 279.09 32.93 279 33.013C278.434 33.2593 277.849 33.3658 277.264 33.3292V34.9735C278.752 34.8692 280.074 34.8154 281.232 34.8154L281.404 34.7838ZM301.244 14.6092C300.72 12.8865 300.134 11.218 299.489 9.61297C299.218 8.89892 298.905 8.23155 298.554 7.62081C298.23 7.11908 297.872 6.68378 297.486 6.32432L296.15 6.86189L293.575 7.71567V9.48648C293.929 9.40855 294.289 9.40855 294.643 9.48648C294.964 9.8533 295.252 10.2897 295.502 10.783C296.21 12.1468 296.848 13.6065 297.409 15.1468C298.273 17.3824 299.088 19.6465 299.851 21.9454C300.071 22.5269 300.227 23.1697 300.309 23.8427V31.5584C300.315 31.9699 300.27 32.3791 300.175 32.76C300.092 32.923 299.978 33.0344 299.851 33.0762C299.313 33.1953 298.772 33.2587 298.23 33.2659V35.0368H306.089V33.2659C305.553 33.2849 305.017 33.2321 304.487 33.1078C304.347 33.0593 304.219 32.9374 304.124 32.76C304.008 32.3204 303.943 31.8483 303.934 31.3686C303.895 30.1354 303.895 28.9022 303.934 27.6689V24.2222C303.905 23.7173 303.905 23.2092 303.934 22.7043C304.01 22.1762 304.124 21.6671 304.277 21.1865C304.544 20.3422 305.244 18.4449 306.375 15.4946C307.507 12.5443 308.583 9.99243 309.599 7.84216V6.95675H307.692C307.577 7.33621 307.291 8.19 306.852 9.45486L304.563 16.1586L303.037 20.2378C302.846 19.5422 302.28 17.686 301.339 14.6724L301.244 14.6092Z" fill="#004B93"/>
<path fill-rule="evenodd" clip-rule="evenodd" d="M69.0775 96.0665V68.6505H84.32V50.563H69.0775V24.9495H85.808V34.8786H96.8535V7.01999H52.6332V24.9495H56.792V96.0665H52.6523V114.154H73.0646V96.0665H69.0775ZM46.8911 73.6468V24.9495H50.9735V7.01999H30.5422V24.9495H34.5292V67.607C34.5292 85.5049 33.2892 94.0743 25.544 94.0743C17.7988 94.0743 16.5397 85.3784 16.5397 67.607V24.9495H20.4886V7.01999H0V24.9495H4.06339V73.6468C4.06339 84.3032 4.06338 92.9992 7.09662 100.841C10.4732 109.695 16.6351 115.356 25.5249 115.356C41.2825 115.356 46.8911 101.727 46.8911 73.6468V73.6468ZM106.964 6.98837V114.122H109.826V6.98837H106.964Z" fill="white"/>
<path d="M322.572 34.7838C322.82 35.9158 323.297 36.8676 323.926 37.4716C324.735 38.1863 325.643 38.5246 326.559 38.4519C327.423 38.4767 328.283 38.2409 329.096 37.7562C329.922 37.2199 330.71 36.5304 331.442 35.7008C332.103 35.0117 332.705 34.1825 333.236 33.2343C333.869 31.848 334.347 30.2843 334.647 28.6176C335.047 26.6724 335.253 24.6326 335.258 22.5778C335.266 21.5845 335.189 20.5942 335.029 19.637C334.885 18.7874 334.631 17.9999 334.285 17.3286C333.869 16.6101 333.351 16.0772 332.778 15.7792C332.074 15.366 331.331 15.1626 330.584 15.1784C329.653 15.1729 328.731 15.4851 327.875 16.0954C327.035 16.6913 326.246 17.4674 325.529 18.4038C324.988 19.0663 324.489 19.8186 324.041 20.6489C323.462 21.9968 323.035 23.5075 322.782 25.1076C322.41 27.0405 322.217 29.0554 322.209 31.0841C322.203 32.3553 322.333 33.6183 322.591 34.8154L322.572 34.7838ZM326.12 23.8111C326.341 21.905 326.824 20.1089 327.532 18.5619C327.773 18.1209 328.067 17.769 328.396 17.5293C328.725 17.2896 329.08 17.1673 329.439 17.1705C329.773 17.15 330.106 17.2528 330.412 17.4716C330.719 17.6903 330.993 18.0196 331.214 18.4354C331.729 19.6149 331.975 21.06 331.9 22.5146C331.887 24.8767 331.688 27.2258 331.309 29.503C331.106 30.8651 330.805 32.1816 330.412 33.4241C330.159 34.2392 329.793 34.9434 329.344 35.4795C328.934 35.912 328.456 36.1322 327.97 36.1119C327.617 36.161 327.261 36.0755 326.93 35.8617C326.6 35.648 326.303 35.3117 326.063 34.8786C325.571 33.682 325.342 32.2422 325.414 30.7995C325.439 28.4136 325.65 26.0433 326.044 23.7478L326.12 23.8111ZM338.959 18.3722H340.866L338.844 35.6692C338.546 38.8751 338.119 42.0443 337.566 45.1557C337.46 45.7532 337.255 46.2898 336.975 46.7051C336.763 46.9854 336.502 47.1411 336.231 47.1478C335.95 47.1503 335.678 46.9814 335.468 46.6735C335.191 46.2286 334.976 45.689 334.838 45.0924H334.399C334.304 45.9146 334.19 46.7051 334.056 47.4008C333.922 48.0965 333.732 49.0135 333.484 50.1835C333.772 50.4049 334.083 50.544 334.399 50.5946C334.882 50.5756 335.353 50.3574 335.773 49.9622C336.796 49.0051 337.701 47.7396 338.444 46.2308C339.345 44.4942 340.061 42.5159 340.561 40.3808C341.324 36.8392 341.961 33.2312 342.469 29.5662L343.938 18.3722H347.505C347.61 17.552 347.757 16.748 347.944 15.9689L347.81 15.5895C347.362 15.7051 346.91 15.779 346.456 15.8108C345.451 15.9152 344.815 15.9152 344.548 15.8108H344.319C344.531 13.7343 344.805 11.6763 345.14 9.64459C345.229 9.05427 345.357 8.48175 345.521 7.93702C345.643 7.57194 345.821 7.26654 346.036 7.05162C346.237 6.8461 346.468 6.73665 346.704 6.7354C347.069 6.77103 347.42 6.97956 347.715 7.33621C348.173 7.89275 348.562 8.58843 348.86 9.39162H349.279C349.455 7.39221 349.716 5.41611 350.062 3.47838C349.697 3.23681 349.309 3.10819 348.917 3.09892C348.469 3.07124 348.021 3.18941 347.601 3.44675C346.932 4.06746 346.294 4.77594 345.693 5.5654C344.745 6.69328 343.84 7.91838 342.984 9.23351C342.524 9.91831 342.131 10.7186 341.82 11.6051C341.592 12.4765 341.425 13.3892 341.324 14.3246C341.324 14.9254 341.191 15.3049 341.134 15.5578C340.645 15.9143 340.141 16.2103 339.626 16.4432C339.016 16.7373 338.558 16.9808 338.253 17.1705L338.119 18.3405H338.959V18.3722ZM145.118 70.5162H142.581C142.604 72.3232 142.495 74.1283 142.257 75.8919C142.228 76.1389 142.163 76.3699 142.066 76.5635C141.969 76.7571 141.845 76.9068 141.703 76.9987C140.153 77.5172 138.57 77.7085 136.991 77.5678C136.127 77.5678 134.468 77.4508 132.012 77.22V70.6427C132.012 62.3578 132.121 56.6343 132.337 53.4722L135.37 53.2508H138.098C139.58 53.2208 141.06 53.4006 142.524 53.7884C143.356 53.9362 144.168 54.3101 144.927 54.8951C145.048 54.994 145.143 55.1627 145.194 55.3695C145.315 56.1979 145.374 57.0454 145.366 57.8992C145.481 60.47 145.538 62.1365 145.538 62.8954H147.884C147.884 60.7862 147.974 58.3324 148.151 55.5276C148.329 52.7227 148.514 50.4049 148.705 48.5708L148.438 47.9068C146.6 47.5791 144.753 47.4208 142.905 47.4324L129.017 47.8751L118.83 47.4324V51.5432C119.975 51.616 121.114 51.7962 122.245 52.0808C122.537 52.1567 122.815 52.3275 123.065 52.5868C123.2 52.8003 123.293 53.0756 123.332 53.3773C123.555 55.0917 123.664 56.8413 123.657 58.5949C123.834 67.0284 123.924 71.4965 123.924 72.0024V91.7027C123.924 93.3881 123.872 96.1708 123.771 100.051C123.67 103.931 123.594 106.239 123.542 106.976C123.521 107.847 123.385 108.701 123.142 109.474C123.033 109.724 122.879 109.912 122.703 110.012C121.428 110.447 120.131 110.669 118.83 110.676V114.628C122.378 114.398 124.973 114.281 126.614 114.281L137.907 114.534V110.676C136.384 110.585 134.867 110.321 133.367 109.885C133.077 109.752 132.822 109.463 132.642 109.063C132.327 107.352 132.172 105.571 132.184 103.782C132.07 100.746 132.012 95.4752 132.012 87.9714V82.5641H134.321C136.572 82.4818 138.823 82.6905 141.055 83.1965C141.255 83.2224 141.451 83.3173 141.628 83.4752C141.805 83.6331 141.961 83.8505 142.085 84.1135C142.482 86.4571 142.65 88.8915 142.581 91.3232H145.118V70.5162ZM161.181 114.091C162.453 114.091 164.666 114.154 167.82 114.281L174.611 114.534C177.078 114.534 178.898 114.448 180.067 114.281C180.646 114.217 181.221 114.069 181.784 113.838C181.784 113.228 181.874 111.412 182.051 108.399L182.776 98.7227V97.1416H180.43C180.061 100.218 179.686 102.982 179.304 105.426C179.221 106.071 179.051 106.676 178.808 107.197C178.369 107.567 177.888 107.782 177.396 107.83C174.869 108.434 172.318 108.72 169.766 108.684C168.798 108.684 166.986 108.567 164.329 108.336V100.177V86.6116V72.793C164.329 67.4394 164.372 62.9998 164.462 59.4803C164.421 57.4951 164.472 55.5076 164.615 53.5354C164.69 53.1354 164.854 52.7969 165.073 52.5868C166.367 51.965 167.712 51.677 169.06 51.733V47.4324C165.918 47.6633 162.598 47.7803 159.102 47.7803C155.96 47.7803 153.169 47.6633 150.727 47.4324V51.6381C152.224 51.5275 153.722 51.8485 155.153 52.5868C155.361 52.7654 155.518 53.0719 155.591 53.4405C155.878 56.8557 156 60.3024 155.954 63.7492V82.4376C155.954 89.3089 155.916 95.1906 155.839 100.082C155.763 104.974 155.673 107.82 155.572 108.62C155.557 108.816 155.511 109.001 155.439 109.158C155.214 109.548 154.949 109.87 154.657 110.106C153.982 110.801 153.281 111.424 152.558 111.972V114.439C156.374 114.145 159.241 113.996 161.162 113.996L161.181 114.091ZM186.095 100.81C187.792 105.769 190.343 109.777 193.421 112.32C196.902 115.067 200.726 116.411 204.581 116.241C208.233 116.363 211.863 115.289 215.264 113.079C217.544 111.473 219.611 109.142 221.35 106.217C223.109 103.306 224.492 99.8305 225.413 96.0032C226.693 90.6943 227.341 85.0244 227.321 79.307C227.321 76.0255 227.084 72.7557 226.615 69.5676C226.211 66.7342 225.569 64.0091 224.707 61.4724C222.563 55.6106 219.27 51.1458 215.378 48.8238C212.303 47.1393 209.079 46.3164 205.84 46.3889C202.529 46.3336 199.234 47.1884 196.092 48.9186C193.615 50.3891 191.351 52.7055 189.449 55.7178C187.546 58.7301 186.046 62.3713 185.046 66.4054C183.921 71.2769 183.377 76.4637 183.444 81.6786C183.301 88.2803 184.216 94.8268 186.095 100.652V100.81ZM193.726 64.7927C194.472 60.8518 195.989 57.4356 198.038 55.0849C200.183 52.8619 202.682 51.7601 205.21 51.9227C207.261 51.7703 209.301 52.4772 211.143 53.9781C212.672 55.4644 213.977 57.5082 214.959 59.9546C216.129 62.846 216.981 66.0576 217.477 69.4411C218.086 73.4515 218.381 77.5751 218.354 81.7103C218.444 87.3737 217.894 93.015 216.733 98.3432C215.93 102.262 214.375 105.638 212.307 107.956C210.341 109.896 208.089 110.892 205.802 110.834C203.395 110.887 201.031 109.789 198.991 107.672C196.811 105.112 195.159 101.502 194.26 97.3314C192.898 91.4326 192.25 85.1467 192.353 78.8327C192.316 74.0096 192.768 69.2105 193.688 64.6346L193.726 64.7927ZM231.384 52.4919C231.571 52.6886 231.718 52.9755 231.804 53.3141C232.088 55.6761 232.203 58.0854 232.147 60.4922L232.3 70.6111V88.3824L232.071 102.359C232.048 104.254 231.952 106.145 231.785 108.019C231.762 108.487 231.678 108.941 231.537 109.348C231.408 109.593 231.233 109.76 231.041 109.822C229.781 110.187 228.504 110.367 227.225 110.359V114.565C229.768 114.334 232.548 114.217 235.562 114.217C238.933 114.217 242.258 114.334 245.539 114.565V110.328C244.418 110.341 243.296 110.246 242.182 110.043C241.884 109.969 241.599 109.797 241.342 109.537C241.183 109.36 241.052 109.121 240.961 108.842C240.744 107.717 240.634 106.544 240.636 105.363C240.636 104.478 240.579 100.746 240.465 94.1692V78.9592C240.465 75.9235 240.522 69.8933 240.636 60.8716C240.636 56.8462 240.694 54.2532 240.808 53.0927C241.716 52.8378 242.635 52.7109 243.555 52.7132C245.012 52.5979 246.472 52.843 247.886 53.4405C249.16 54.2394 250.258 55.6621 251.033 57.5197C251.922 59.6763 252.369 62.2472 252.311 64.8559C252.332 67.6133 251.91 70.3303 251.09 72.7297C250.429 74.8276 249.388 76.5302 248.114 77.5995C246.447 78.6324 244.661 79.0323 242.887 78.7695L242.563 80.3505C243.254 81.2486 243.858 82.3142 244.356 83.5127C245.629 86.2954 247.128 90.1121 248.858 94.9597L255.039 111.846C255.339 112.699 255.57 113.613 255.726 114.565C257.252 114.439 258.784 114.375 260.324 114.375C261.596 114.375 263.738 114.439 266.753 114.565V110.328C266.108 110.38 265.463 110.252 264.845 109.948C264.484 109.666 264.16 109.268 263.891 108.778C263.561 108.209 262.676 106.344 261.239 103.181L259.332 98.4381L254.849 87.3705L254.524 86.4535C254.41 86.1373 254.066 85.2519 253.437 83.7341C252.807 82.2162 252.273 80.7932 251.796 79.3703C254.409 77.9666 256.725 75.3556 258.473 71.8443C259.889 68.8366 260.654 65.1288 260.648 61.3143C260.703 58.3348 260.145 55.4128 259.065 53.0295C258.119 50.8882 256.78 49.3127 255.249 48.5392C253.023 47.6933 250.74 47.3319 248.458 47.4641C246.894 47.4641 244.923 47.5589 242.544 47.7486C241.094 47.8973 239.364 47.97 237.355 47.97H231.861L227.244 47.7486V51.5432C228.675 51.5502 230.099 51.8692 231.479 52.4919H231.384ZM277.455 47.8751C274.313 47.8751 271.528 47.7581 269.099 47.5273V51.733C270.324 51.7481 271.547 51.8853 272.762 52.1441C273.016 52.2174 273.253 52.4032 273.449 52.6816C273.592 52.9517 273.69 53.2785 273.735 53.6303C273.945 56.1568 274.059 58.7024 274.078 61.2511V93.5368C274.078 96.8033 274.002 100.345 273.849 104.162C273.754 106.786 273.678 108.272 273.62 108.652C273.577 108.942 273.485 109.206 273.353 109.411C273.113 109.705 272.83 109.891 272.533 109.948C272.228 109.948 271.07 110.065 269.061 110.296V114.502C271.825 114.256 274.592 114.14 277.359 114.154C280.932 114.154 284.284 114.271 287.413 114.502V110.328C286.259 110.343 285.106 110.237 283.96 110.012C283.646 109.929 283.347 109.735 283.082 109.442C282.883 109.177 282.743 108.81 282.682 108.399C282.432 106.318 282.336 104.194 282.396 102.075V73.9313C282.396 73.3211 282.434 69.1027 282.51 61.2827V56.5711C282.515 55.4999 282.611 54.4351 282.796 53.4089C282.853 53.0962 282.966 52.8201 283.121 52.6184C283.356 52.3497 283.622 52.1665 283.903 52.0808C285.061 51.8456 286.227 51.7294 287.394 51.733V47.4324C284.252 47.6633 280.921 47.7803 277.398 47.7803L277.455 47.8751ZM299.794 114.281L308.359 114.628C311.724 114.749 315.08 114.035 318.318 112.51C321.11 111.037 323.702 108.674 325.948 105.553C328.321 102.291 330.219 98.1839 331.5 93.5368C332.889 88.4103 333.58 82.8392 333.522 77.22C333.553 72.715 333.094 68.2377 332.167 64.0022C331.61 61.5575 330.804 59.2899 329.783 57.2984C328.698 55.1705 327.409 53.3542 325.967 51.9227C324.302 50.3696 322.489 49.3001 320.607 48.7605C317.905 47.9815 315.165 47.6321 312.423 47.717C310.935 47.717 308.964 47.7708 306.509 47.8751C303.1 48.0649 300.78 48.1597 299.546 48.1597L289.149 47.4324V51.2903C291.234 51.733 292.444 52.0176 292.774 52.1441C293.042 52.2186 293.293 52.4157 293.498 52.7132C293.605 52.9024 293.683 53.1297 293.727 53.3773C294.004 56.2327 294.132 59.1198 294.109 62.01C294.21 70.1462 294.262 76.3251 294.262 80.5403V88.5405C294.262 98.1535 294.153 105.101 293.937 109.379C293.327 110.148 292.69 110.853 292.03 111.498L291.228 112.257V114.565L299.966 114.217L299.794 114.281ZM302.293 89.9003V78.8327C302.293 66.3105 302.394 57.7948 302.598 53.2824C304.221 52.8795 305.86 52.6681 307.501 52.65C310.481 52.4374 313.463 53.0138 316.334 54.3576C318.221 55.4414 319.891 57.3672 321.16 59.923C322.45 62.5353 323.387 65.5763 323.907 68.8403C324.469 72.2833 324.751 75.8352 324.746 79.4019C324.763 83.1676 324.481 86.9205 323.907 90.5643C323.428 93.7313 322.635 96.7446 321.561 99.4816C320.721 101.671 319.648 103.589 318.394 105.142C317.231 106.465 315.941 107.449 314.578 108.051C312.354 108.99 310.064 109.437 307.768 109.379C306.048 109.362 304.331 109.108 302.636 108.62C302.432 105.585 302.331 99.3235 302.331 89.837L302.293 89.9003ZM335.048 114.281L341.706 114.628V110.676C340.313 110.778 338.92 110.489 337.585 109.822C337.43 109.644 337.305 109.401 337.225 109.118C337.145 108.835 337.111 108.521 337.127 108.209C337.41 105.395 337.89 102.647 338.558 100.019L339.817 94.2957H354.716L357.292 104.668C357.645 105.904 357.87 107.229 357.959 108.589C357.973 108.861 357.939 109.134 357.861 109.376C357.783 109.617 357.665 109.816 357.521 109.948C356.195 110.462 354.837 110.706 353.476 110.676V114.628L363.606 114.281L371.638 114.628V110.676L370.359 110.454C369.794 110.426 369.232 110.31 368.681 110.106C368.462 109.984 368.261 109.791 368.089 109.537C367.865 109.18 367.678 108.763 367.536 108.304L366.372 103.909L364.579 97.363L351.759 47.2427H347.639L345.102 58.1205L337.566 88.9516C336.615 92.868 335.654 96.7785 334.686 100.683C334.057 103.123 333.421 105.558 332.778 107.988C332.61 108.517 332.391 108.998 332.129 109.411C331.906 109.719 331.646 109.945 331.366 110.075C330.445 110.344 329.516 110.511 328.581 110.581V114.534L335.201 114.186L335.048 114.281ZM347.181 63.8757L353.362 88.5405H341.248L347.2 63.7808L347.181 63.8757ZM120.337 8.88567C120.502 9.01924 120.641 9.22754 120.738 9.48648C120.833 9.90073 120.885 10.3403 120.89 10.783V28.6808C121.048 30.5209 121.62 32.1936 122.493 33.3608C123.059 34.0992 123.707 34.647 124.401 34.9735C125.514 35.5323 126.671 35.8095 127.834 35.7957C128.768 35.8157 129.699 35.6242 130.601 35.2265C131.351 34.8911 132.057 34.3223 132.68 33.5505C133.249 32.8744 133.729 32.0138 134.092 31.0208C134.42 30.0419 134.633 28.969 134.721 27.8586C134.823 26.6219 134.874 25.3753 134.874 24.1273V19.2892V13.5973C134.886 12.2206 134.956 10.847 135.084 9.48648C135.119 9.25086 135.2 9.04032 135.313 8.88567C135.764 8.61217 136.245 8.50428 136.724 8.56946V6.95675L134.092 7.08324H131.135V8.60108C131.724 8.56406 132.312 8.70331 132.871 9.01216C132.998 9.10723 133.1 9.27589 133.157 9.48648C133.296 10.5237 133.353 11.5862 133.329 12.6486V23.0838C133.409 25.0496 133.266 27.023 132.909 28.9022C132.601 29.9542 132.1 30.8177 131.478 31.3686C130.647 32.0672 129.719 32.3942 128.788 32.3173C127.992 32.3493 127.2 32.1126 126.461 31.6216C125.893 31.2353 125.403 30.588 125.049 29.7559C124.7 28.7991 124.503 27.7111 124.477 26.5938V15.1784C124.41 13.344 124.436 11.5036 124.553 9.67621C124.562 9.5377 124.589 9.40401 124.632 9.28405C124.675 9.16409 124.732 9.06062 124.801 8.98054C125.33 8.64432 125.897 8.51447 126.461 8.60108V6.95675H124.324L122.646 7.08324L118.83 6.95675V8.60108L120.414 8.88567H120.337ZM141.875 35.0368H147.694V33.3292H147.446C147.063 33.3107 146.68 33.2579 146.301 33.1711C146.158 33.1551 146.02 33.0789 145.9 32.9497C145.822 32.8539 145.762 32.722 145.729 32.5703C145.626 31.6312 145.575 30.6787 145.576 29.7243V13.2811C150.359 22.9573 154.052 30.2081 156.66 35.0368L158.739 35.5427L158.892 35.3846C158.777 33.4873 158.72 28.0895 158.72 19.1943V13.9135C158.681 12.3689 158.738 10.8217 158.892 9.29675C158.909 9.16624 158.957 9.05255 159.025 8.98054C159.598 8.6833 160.2 8.56313 160.799 8.6327V6.95675H155.076V8.6327C155.723 8.53784 156.374 8.68013 156.984 9.04378C157.126 9.31494 157.201 9.66511 157.194 10.0241C157.295 11.2889 157.346 15.5041 157.346 22.6727V27.3211C156.227 25.4016 154.815 22.7581 153.111 19.3841C151.02 15.3192 148.984 11.1757 147.007 6.95675H141.875V8.6327C142.392 8.66432 142.909 8.74654 143.42 8.88567C143.563 8.93045 143.695 9.03992 143.802 9.20189C143.891 9.39646 143.95 9.62455 143.974 9.86594C144.004 10.4984 144.004 11.1308 143.974 11.7632V28.2697C143.911 30.2303 143.853 31.4635 143.802 31.9695C143.787 32.2384 143.734 32.498 143.649 32.7284C143.588 32.8444 143.509 32.9316 143.42 32.9814C142.877 33.111 142.329 33.1849 141.78 33.2027V34.9103L141.875 35.0368ZM169.785 7.08324H166.294V8.72757C166.803 8.72757 167.314 8.78132 167.82 8.88567C167.925 8.9151 168.024 8.99161 168.106 9.10703C168.166 9.22448 168.205 9.3665 168.22 9.51811C168.329 10.5521 168.4 11.5988 168.43 12.6486V26.2459C168.43 27.6152 168.392 29.1014 168.316 30.7046V32.6019C168.297 32.7238 168.257 32.8339 168.201 32.9181C168.1 33.0397 167.982 33.1159 167.858 33.1395H166.408V34.9103H174.096V33.2659C173.613 33.3167 173.129 33.3167 172.646 33.2659C172.495 33.1982 172.357 33.0676 172.246 32.8865C172.161 32.7741 172.1 32.6185 172.074 32.4438C171.969 31.5591 171.93 30.6563 171.959 29.7559V18.0243V12.7119V10.7513C171.957 10.3246 171.989 9.89914 172.055 9.48648C172.087 9.32404 172.155 9.18815 172.246 9.10703C172.343 8.99621 172.454 8.92078 172.57 8.88567C173.059 8.83563 173.55 8.83563 174.039 8.88567V6.95675H169.842L169.785 7.08324ZM189.129 35.1632C189.625 32.8865 190.565 28.9875 191.952 23.4632L193.593 17.1389L194.451 13.8186C194.783 12.2054 195.245 10.6738 195.825 9.26513C196.264 8.99594 196.729 8.8568 197.198 8.85405V6.95675H191.513V8.72757H193.287C193.358 8.78378 193.417 8.87139 193.459 8.98054C193.486 9.14628 193.486 9.32074 193.459 9.48648C193.468 9.64424 193.468 9.80305 193.459 9.96081C193.383 10.5079 193.16 11.564 192.791 13.123C192.512 14.3919 192.226 15.6568 191.933 16.9176L189.243 27.9535L186.191 15.8108V15.4313L185.599 13.5024C185.246 12.2811 184.978 10.9975 184.798 9.67621C184.788 9.49331 184.823 9.31144 184.894 9.17027C184.995 9.01774 185.121 8.91864 185.256 8.88567C185.741 8.74264 186.233 8.67909 186.725 8.69594V6.95675H178.846V8.72757C179.357 8.67966 179.869 8.79782 180.353 9.0754C180.664 9.57186 180.905 10.179 181.059 10.8462C181.364 11.8581 182.19 15.0203 183.539 20.3327L185.256 27.1313L187.164 35.1316H189.071L189.129 35.1632ZM206.584 34.7838H212.46C213.19 34.847 213.923 34.847 214.654 34.7838L214.806 34.5308C214.825 32.3426 214.915 30.1577 215.073 27.9851H214.215C214.127 29.2172 213.974 30.4341 213.757 31.6216C213.728 31.7604 213.675 31.8817 213.604 31.9695C213.171 32.2382 212.712 32.3774 212.25 32.3805H207.538V21.6608C208.173 21.603 208.81 21.603 209.446 21.6608C210.166 21.6445 210.887 21.7185 211.601 21.8822C211.811 21.9138 211.998 22.1035 212.116 22.3881C212.298 23.3146 212.362 24.2949 212.307 25.2657H213.28V16.4749H212.307C212.313 17.3266 212.255 18.1762 212.135 19.0046C212.108 19.1698 212.047 19.3147 211.964 19.4157C211.711 19.4889 211.453 19.4889 211.201 19.4157H207.576V15.2416C207.567 13.3089 207.624 11.3768 207.748 9.45486H209.942C210.726 9.45593 211.509 9.52983 212.288 9.67621C212.621 9.68698 212.95 9.79399 213.261 9.99243C213.339 10.0967 213.392 10.2417 213.414 10.4035C213.497 11.368 213.536 12.3388 213.528 13.3127H214.463L214.577 10.4035L214.806 7.49432V7.24135L214.215 6.95675H201.891V8.66432C202.482 8.65484 203.074 8.77184 203.646 9.01216C203.731 9.07554 203.799 9.18798 203.837 9.32838C203.97 10.2391 204.028 11.1751 204.009 12.1111V25.0443C204.009 26.0973 203.976 27.7733 203.913 30.0722C203.913 31.337 203.913 32.2541 203.799 32.7916C203.432 33.2565 203.036 33.6454 202.616 33.9616V35.0368L206.584 34.7838ZM222.513 8.9173C222.591 9.00029 222.651 9.12205 222.685 9.26513C222.815 10.3055 222.866 11.368 222.838 12.4273V24.0324L222.742 29.8824C222.735 30.6763 222.697 31.4685 222.628 32.2541C222.623 32.4534 222.59 32.6482 222.532 32.8232C222.476 32.9221 222.403 32.9886 222.322 33.013C221.787 33.1647 221.244 33.2388 220.701 33.2343V35.0051H228.37V33.2659C227.9 33.3114 227.428 33.3114 226.958 33.2659C226.836 33.2307 226.719 33.1554 226.615 33.0446C226.551 32.9708 226.499 32.8734 226.462 32.76C226.373 32.2891 226.328 31.7987 226.329 31.3054V26.5938V20.2695V12.6803V9.51811C226.707 9.41237 227.09 9.35948 227.473 9.36C228.115 9.29872 228.759 9.40544 229.381 9.67621C229.915 10.0114 230.373 10.6059 230.697 11.3838C231.079 12.3135 231.268 13.4234 231.231 14.5459C231.225 15.6555 231.048 16.744 230.716 17.7081C230.444 18.5927 230.01 19.3121 229.476 19.7635C228.777 20.2031 228.027 20.376 227.282 20.2695L227.149 20.9335C227.435 21.3098 227.687 21.7557 227.893 22.2616C228.414 23.4221 229.051 25.0222 229.801 27.0681L232.395 34.1514C232.519 34.5087 232.614 34.8913 232.681 35.2897H237.298V33.2659C237.04 33.282 236.782 33.2286 236.535 33.1078C236.382 32.9864 236.245 32.8142 236.134 32.6019C235.995 32.3711 235.625 31.59 235.028 30.2619L234.207 28.2697L232.3 23.6213L232.166 23.2419L231.785 22.1351C231.537 21.5027 231.289 20.9019 231.098 20.3011C232.189 19.7082 233.155 18.6112 233.883 17.1389C234.48 15.8741 234.803 14.3151 234.799 12.7119C234.821 11.4603 234.586 10.2333 234.131 9.23351C233.733 8.34013 233.171 7.68535 232.529 7.36784C231.597 7.01564 230.641 6.86681 229.686 6.92513H220.815V8.60108C221.414 8.6074 222.012 8.74654 222.59 9.01216L222.513 8.9173ZM253.78 10.9095C253.834 10.0487 253.917 9.1936 254.028 8.34811L253.933 7.87378C253.266 7.35092 252.561 6.97868 251.834 6.76703C251.017 6.51276 250.186 6.38572 249.354 6.38757C248.546 6.38329 247.739 6.53182 246.951 6.83027C246.202 7.10896 245.491 7.61269 244.852 8.31648C244.203 9.06081 243.683 10.075 243.345 11.2573C242.961 12.5448 242.765 13.9637 242.773 15.3997C242.77 16.4254 242.88 17.4432 243.097 18.4038C243.302 19.3043 243.628 20.1155 244.051 20.7754C244.532 21.4901 245.108 22.0086 245.73 22.2932C246.188 22.5241 247.147 22.8941 248.61 23.4C249.348 23.6367 250.065 24.0189 250.747 24.5384C251.129 24.8609 251.441 25.3669 251.644 25.993C251.846 26.6697 251.943 27.4191 251.93 28.1749C251.94 29.1134 251.802 30.0401 251.529 30.8627C251.225 31.7066 250.763 32.362 250.213 32.7284C249.563 33.1918 248.86 33.4182 248.153 33.3924C247.304 33.4069 246.467 33.0814 245.711 32.4438C245.072 31.9708 244.525 31.216 244.127 30.2619C244.031 29.0671 243.986 27.8624 243.994 26.657H243.021C243.061 28.9929 242.933 31.3284 242.639 33.6138C243.455 34.2921 244.312 34.8222 245.196 35.1949C246.065 35.5237 246.955 35.6829 247.847 35.6692C249.037 35.7226 250.222 35.4007 251.338 34.7205C251.987 34.2842 252.584 33.677 253.113 32.9181C253.659 32.1667 254.118 31.2557 254.467 30.2303C254.912 28.8389 255.135 27.2831 255.116 25.7084C255.123 24.819 255.046 23.9332 254.887 23.0838C254.76 22.3782 254.56 21.7147 254.295 21.1232C254.033 20.5728 253.709 20.1112 253.342 19.7635C252.844 19.3079 252.311 18.9674 251.758 18.7516L250.137 18.2457L248.229 17.6449C247.742 17.4587 247.273 17.1607 246.836 16.7595C246.525 16.4503 246.274 16.0006 246.111 15.463C245.925 14.7893 245.833 14.0538 245.844 13.3127C245.85 12.7103 245.932 12.1166 246.087 11.5713C246.241 11.026 246.464 10.5417 246.741 10.1505C247.454 9.16028 248.369 8.66215 249.297 8.75919C250.012 8.74566 250.721 8.98273 251.377 9.45486C251.884 9.77108 252.33 10.3086 252.674 11.0043C252.75 12.0542 252.788 13.1103 252.788 14.1665H253.799C253.799 12.8068 253.799 11.7 253.914 11.0043L253.78 10.9095ZM264.54 7.02H261.049V8.72757C261.559 8.72973 262.068 8.78253 262.575 8.88567C262.68 8.9151 262.779 8.99161 262.861 9.10703C262.921 9.22448 262.96 9.3665 262.975 9.51811C263.066 10.5658 263.117 11.622 263.128 12.6803V26.2459C263.128 27.6152 263.096 29.1014 263.033 30.7046V32.6019C263.014 32.7238 262.974 32.8339 262.918 32.9181C262.817 33.0397 262.699 33.1159 262.575 33.1395H261.125V34.9103H268.813V33.2659C268.33 33.3167 267.846 33.3167 267.363 33.2659C267.233 33.2261 267.109 33.1398 267.001 33.013C266.915 32.9022 266.854 32.746 266.829 32.5703C266.724 31.6856 266.685 30.7828 266.714 29.8824V18.0243V12.7119V10.7513C266.731 10.3203 266.782 9.89482 266.867 9.48648C266.893 9.36231 266.939 9.25268 267.001 9.17027C267.098 9.06028 267.209 8.98492 267.325 8.94892C267.808 8.90001 268.292 8.90001 268.775 8.94892V6.95675H264.578L264.54 7.02ZM281.404 34.7838C282.485 34.7838 283.807 34.8375 285.372 34.9419V33.3924C284.786 33.4246 284.2 33.3073 283.636 33.0446C283.547 32.9667 283.469 32.859 283.406 32.7283C283.344 32.5977 283.299 32.4469 283.273 32.2857C283.146 30.5551 283.101 28.8104 283.14 27.0681V15.0519V9.54973H284.876C285.805 9.54973 286.598 9.60348 287.26 9.70784C287.386 9.65813 287.516 9.65813 287.642 9.70784C287.733 9.96833 287.785 10.261 287.794 10.5616C287.884 11.5451 287.936 12.538 287.947 13.5341H288.939V9.13865C288.961 8.41851 289.005 7.70077 289.073 6.98838L288.958 6.79865H273.658L273.544 6.98838C273.544 7.66192 273.582 8.29435 273.658 8.88567C273.735 9.477 273.735 11.0265 273.658 13.5341H274.65C274.664 12.4747 274.727 11.4154 274.841 10.3719C274.851 10.1207 274.904 9.87945 274.994 9.67621C275.137 9.56709 275.294 9.51304 275.452 9.51811H279.496V27.0365C279.535 28.7683 279.49 30.5024 279.362 32.2224C279.338 32.3886 279.294 32.5447 279.231 32.6808C279.169 32.8169 279.09 32.93 279 33.013C278.434 33.2593 277.849 33.3658 277.264 33.3292V34.9735C278.752 34.8692 280.074 34.8154 281.232 34.8154L281.404 34.7838ZM301.244 14.6092C300.72 12.8865 300.134 11.218 299.489 9.61297C299.218 8.89892 298.905 8.23155 298.554 7.62081C298.23 7.11908 297.872 6.68378 297.486 6.32432L296.15 6.86189L293.575 7.71567V9.48648C293.929 9.40855 294.289 9.40855 294.643 9.48648C294.964 9.8533 295.252 10.2897 295.502 10.783C296.21 12.1468 296.848 13.6065 297.409 15.1468C298.273 17.3824 299.088 19.6465 299.851 21.9454C300.071 22.5269 300.227 23.1697 300.309 23.8427V31.5584C300.315 31.9699 300.27 32.3791 300.175 32.76C300.092 32.923 299.978 33.0344 299.851 33.0762C299.313 33.1953 298.772 33.2587 298.23 33.2659V35.0368H306.089V33.2659C305.553 33.2849 305.017 33.2321 304.487 33.1078C304.347 33.0593 304.219 32.9374 304.124 32.76C304.008 32.3204 303.943 31.8483 303.934 31.3686C303.895 30.1354 303.895 28.9022 303.934 27.6689V24.2222C303.905 23.7173 303.905 23.2092 303.934 22.7043C304.01 22.1762 304.124 21.6671 304.277 21.1865C304.544 20.3422 305.244 18.4449 306.375 15.4946C307.507 12.5443 308.583 9.99243 309.599 7.84216V6.95675H307.692C307.577 7.33621 307.291 8.19 306.852 9.45486L304.563 16.1586L303.037 20.2378C302.846 19.5422 302.28 17.686 301.339 14.6724L301.244 14.6092Z" fill="white"/>
<path fill-rule="evenodd" clip-rule="evenodd" d="M69.0775 96.0665V68.6505H84.32V50.563H69.0775V24.9495H85.808V34.8786H96.8535V7.02H52.6332V24.9495H56.792V96.0665H52.6523V114.154H73.0646V96.0665H69.0775ZM46.8911 73.6468V24.9495H50.9735V7.02H30.5422V24.9495H34.5292V67.607C34.5292 85.5049 33.2892 94.0743 25.544 94.0743C17.7988 94.0743 16.5397 85.3784 16.5397 67.607V24.9495H20.4886V7.02H0V24.9495H4.06339V73.6468C4.06339 84.3032 4.06338 92.9992 7.09662 100.841C10.4732 109.695 16.6351 115.356 25.5249 115.356C41.2825 115.356 46.8911 101.727 46.8911 73.6468V73.6468Z" fill="white"/>
</svg>
